<?xml version="1.0" encoding="UTF-8" standalone="no"?>
<!-- Created with Inkscape (http://www.inkscape.org/) -->

<svg
   xmlns:dc="http://purl.org/dc/elements/1.1/"
   xmlns:cc="http://creativecommons.org/ns#"
   xmlns:rdf="http://www.w3.org/1999/02/22-rdf-syntax-ns#"
   xmlns:svg="http://www.w3.org/2000/svg"
   xmlns="http://www.w3.org/2000/svg"
   xmlns:sodipodi="http://sodipodi.sourceforge.net/DTD/sodipodi-0.dtd"
   xmlns:inkscape="http://www.inkscape.org/namespaces/inkscape"
   width="10.724444mm"
   height="10.724444mm"
   viewBox="0 0 38 37.999999"
   id="svg2"
   version="1.1"
   inkscape:version="0.91 r13725"
   sodipodi:docname="logo.svg">
  <sodipodi:namedview
     id="base"
     pagecolor="#ffffff"
     bordercolor="#666666"
     borderopacity="1.0"
     inkscape:pageopacity="0.0"
     inkscape:pageshadow="2"
     inkscape:zoom="6.2709207"
     inkscape:cx="-29.532079"
     inkscape:cy="7.2252595"
     inkscape:document-units="px"
     inkscape:current-layer="layer1"
     showgrid="false"
     fit-margin-top="0"
     fit-margin-left="0"
     fit-margin-right="0"
     fit-margin-bottom="0"
     inkscape:window-width="1535"
     inkscape:window-height="876"
     inkscape:window-x="65"
     inkscape:window-y="24"
     inkscape:window-maximized="1" />
  <defs
     id="defs4" />
  <metadata
     id="metadata7">
    <rdf:RDF>
      <cc:Work
         rdf:about="">
        <dc:format>image/svg+xml</dc:format>
        <dc:type
           rdf:resource="http://purl.org/dc/dcmitype/StillImage" />
        <dc:title></dc:title>
      </cc:Work>
    </rdf:RDF>
  </metadata>
  <g
     transform="translate(-237.14285,-714.36218)"
     id="layer1"
     inkscape:groupmode="layer"
     inkscape:label="Layer 1">
    <path
       sodipodi:type="inkscape:offset"
       inkscape:radius="2.0730608"
       inkscape:original="M 0 0 L 0 9.5 L 0 19 L 0 28.5 L 0 38 L 9.5 38 L 19 38 L 28.5 38 L 38 38 L 38 28.5 L 38 19 L 38 9.5 L 38 0 L 28.5 0 L 19 0 L 9.5 0 L 0 0 z M 19 4 C 20.989124 4 22.937496 4.3958593 24.740234 5.1425781 C 26.542973 5.889297 28.200899 6.9860552 29.607422 8.3925781 C 31.013945 9.7991009 32.110703 11.457027 32.857422 13.259766 C 33.604141 15.062504 34 17.010876 34 19 C 34 20.989124 33.604141 22.937496 32.857422 24.740234 C 32.110703 26.542973 31.013945 28.200899 29.607422 29.607422 C 28.200899 31.013945 26.542973 32.110703 24.740234 32.857422 C 22.937496 33.604141 20.989124 34 19 34 C 17.010876 34 15.062504 33.604141 13.259766 32.857422 C 11.457027 32.110703 9.7991009 31.013945 8.3925781 29.607422 C 6.9860552 28.200899 5.889297 26.542973 5.1425781 24.740234 C 4.3958593 22.937496 4 20.989124 4 19 C 4 17.010876 4.3958593 15.062504 5.1425781 13.259766 C 5.889297 11.457027 6.9860552 9.7991009 8.3925781 8.3925781 C 9.7991009 6.9860552 11.457027 5.889297 13.259766 5.1425781 C 15.062504 4.3958593 17.010876 4 19 4 z "
       style="fill:#d32d27;fill-opacity:1"
       id="path4652"
       d="M 0,-2.0722656 A 2.0732681,2.0732681 0 0 0 -2.0722656,0 l 0,9.5 0,9.5 0,9.5 0,9.5 A 2.0732681,2.0732681 0 0 0 0,40.072266 l 9.5,0 9.5,0 9.5,0 9.5,0 A 2.0732681,2.0732681 0 0 0 40.072266,38 l 0,-9.5 0,-9.5 0,-9.5 0,-9.5 A 2.0732681,2.0732681 0 0 0 38,-2.0722656 l -9.5,0 -9.5,0 -9.5,0 -9.5,0 z m 19,8.1445312 c 1.714082,0 3.393109,0.3425754 4.947266,0.9863282 1.554858,0.6440435 2.981785,1.5892076 4.193359,2.8007812 1.211573,1.211573 2.156738,2.6385 2.800781,4.193359 0.643753,1.554156 0.986328,3.233184 0.986328,4.947266 0,1.714082 -0.342575,3.39311 -0.986328,4.947266 -0.644043,1.554859 -1.589207,2.981785 -2.800781,4.193359 -1.211574,1.211574 -2.6385,2.156738 -4.193359,2.800781 C 22.39311,31.585159 20.714082,31.927734 19,31.927734 c -1.714082,0 -3.39311,-0.342575 -4.947266,-0.986328 C 12.497875,30.297363 11.070948,29.352198 9.859375,28.140625 8.6478014,26.929051 7.7026373,25.502124 7.0585938,23.947266 6.414841,22.393109 6.0722656,20.714082 6.0722656,19 c 0,-1.714082 0.3425754,-3.393109 0.9863282,-4.947266 C 7.7026373,12.497876 8.6478015,11.070948 9.859375,9.859375 11.070948,8.6478015 12.497876,7.7026373 14.052734,7.0585938 15.606891,6.414841 17.285918,6.0722656 19,6.0722656 Z"
       transform="matrix(1.0677542,0,0,1.0677542,237.28325,711.64712)"
       inkscape:export-xdpi="81.150002"
       inkscape:export-ydpi="81.150002" />
    <g
       id="g4738"
       transform="translate(1.4277272,-1.4277326)">
      <circle
         r="15"
         cy="733.36218"
         cx="256.14285"
         id="path4656"
         style="fill:#ffffff;fill-opacity:1" />
      <g
         id="g4732">
        <text
           sodipodi:linespacing="125%"
           id="text3340-0"
           y="744.78699"
           x="252.6301"
           style="font-style:normal;font-variant:normal;font-weight:normal;font-stretch:normal;font-size:31.25px;line-height:125%;font-family:Ubuntu;-inkscape-font-specification:Ubuntu;letter-spacing:0px;word-spacing:0px;fill:#b3b3b3;fill-opacity:1;stroke:none;stroke-width:1px;stroke-linecap:butt;stroke-linejoin:miter;stroke-opacity:1"
           xml:space="preserve"><tspan
             style="font-size:31.25px;fill:#b3b3b3;fill-opacity:1"
             y="744.78699"
             x="252.6301"
             id="tspan3342-5"
             sodipodi:role="line">!</tspan></text>
        <text
           sodipodi:linespacing="125%"
           id="text3340"
           y="743.98718"
           x="251.83035"
           style="font-style:normal;font-variant:normal;font-weight:normal;font-stretch:normal;font-size:25px;line-height:125%;font-family:Ubuntu;-inkscape-font-specification:Ubuntu;letter-spacing:0px;word-spacing:0px;fill:#d32d27;fill-opacity:0.94117647;stroke:none;stroke-width:1px;stroke-linecap:butt;stroke-linejoin:miter;stroke-opacity:1"
           xml:space="preserve"><tspan
             style="font-size:31.25px;fill:#d32d27;fill-opacity:0.94117647"
             y="743.98718"
             x="251.83035"
             id="tspan3342"
             sodipodi:role="line">!</tspan></text>
      </g>
    </g>
    <ellipse
       style="fill:#ffffff;fill-opacity:0"
       id="path4654"
       cx="256.43826"
       cy="732.34918"
       rx="13.554628"
       ry="14.112761" />
    <rect
       style="fill:#d32d27;fill-opacity:1"
       id="rect4746"
       width="45"
       height="45"
       x="164.90465"
       y="712.49561"
       ry="9.567997"
       inkscape:export-xdpi="76"
       inkscape:export-ydpi="76" />
    <circle
       style="fill:#ffffff;fill-opacity:1"
       id="path4656-7"
       cx="187.40465"
       cy="734.99561"
       r="15" />
    <text
       sodipodi:linespacing="125%"
       id="text3340-8"
       y="745.62061"
       x="182.6234"
       style="font-style:normal;font-variant:normal;font-weight:normal;font-stretch:normal;font-size:25px;line-height:125%;font-family:Ubuntu;-inkscape-font-specification:Ubuntu;letter-spacing:0px;word-spacing:0px;fill:#d32d27;fill-opacity:0.94117647;stroke:none;stroke-width:1px;stroke-linecap:butt;stroke-linejoin:miter;stroke-opacity:1"
       xml:space="preserve"><tspan
         style="font-style:normal;font-variant:normal;font-weight:500;font-stretch:normal;font-size:31.25px;font-family:Ubuntu;-inkscape-font-specification:'Ubuntu Medium';fill:#d32d27;fill-opacity:0.94117647"
         y="745.62061"
         x="182.6234"
         id="tspan3342-8"
         sodipodi:role="line">!</tspan></text>
  </g>
</svg>
